HIERARCHY
ROOT hip
{
  OFFSET 0 0 0
  CHANNELS 6 Xposition Yposition Zposition Zrotation Yrotation Xrotation
  JOINT abdomen
  {
    OFFSET 0 20.6881 -0.73152
    CHANNELS 3 Zrotation Xrotation Yrotation
    JOINT chest
    {
      OFFSET 0 11.7043 -0.48768
      CHANNELS 3 Zrotation Xrotation Yrotation
      JOINT neck
      {
        OFFSET 0 22.1894 -2.19456
        CHANNELS 3 Zrotation Xrotation Yrotation
        JOINT head
        {
          OFFSET -0.24384 7.07133 1.2192
          CHANNELS 3 Zrotation Xrotation Yrotation
          JOINT leftEye
          {
            OFFSET 4.14528 8.04674 8.04672
            CHANNELS 3 Zrotation Xrotation Yrotation
            End Site
            {
              OFFSET 1 0 0
            }
          }
          JOINT rightEye
          {
            OFFSET -3.6576 8.04674 8.04672
            CHANNELS 3 Zrotation Xrotation Yrotation
            End Site
            {
              OFFSET 1 0 0
            }
          }
        }
      }
      JOINT rCollar
      {
        OFFSET -2.68224 19.2634 -4.8768
        CHANNELS 3 Zrotation Xrotation Yrotation
        JOINT rShldr
        {
          OFFSET -8.77824 -1.95073 1.46304
          CHANNELS 3 Zrotation Xrotation Yrotation
          JOINT rForeArm
          {
            OFFSET -28.1742 -1.7115 0.48768
            CHANNELS 3 Zrotation Xrotation Yrotation
            JOINT rHand
            {
              OFFSET -22.5879 0.773209 7.07136
              CHANNELS 3 Zrotation Xrotation Yrotation
              JOINT rThumb1
              {
                OFFSET -1.2192 -0.487915 3.41376
                CHANNELS 3 Zrotation Xrotation Yrotation
                JOINT rThumb2
                {
                  OFFSET -3.37035 -0.52449 3.41376
                  CHANNELS 3 Zrotation Xrotation Yrotation
                  End Site
                  {
                    OFFSET -1.78271 -1.18214 1.43049
                  }
                }
              }
              JOINT rIndex1
              {
                OFFSET -7.75947 0.938293 5.60832
                CHANNELS 3 Zrotation Xrotation Yrotation
                JOINT rIndex2
                {
                  OFFSET -2.54057 -0.884171 1.56538
                  CHANNELS 3 Zrotation Xrotation Yrotation
                  End Site
                  {
                    OFFSET -1.62519 -0.234802 1.16502
                  }
                }
              }
              JOINT rMid1
              {
                OFFSET -8.24714 1.18213 3.41376
                CHANNELS 3 Zrotation Xrotation Yrotation
                JOINT rMid2
                {
                  OFFSET -3.10165 -0.590103 1.0647
                  CHANNELS 3 Zrotation Xrotation Yrotation
                  End Site
                  {
                    OFFSET -2.48547 -0.328903 0.83742
                  }
                }
              }
              JOINT rRing1
              {
                OFFSET -8.82822 0.546677 1.51678
                CHANNELS 3 Zrotation Xrotation Yrotation
                JOINT rRing2
                {
                  OFFSET -2.60934 -0.819778 -0.0198488
                  CHANNELS 3 Zrotation Xrotation Yrotation
                  End Site
                  {
                    OFFSET -2.33842 -0.294052 0.168128
                  }
                }
              }
              JOINT rPinky1
              {
                OFFSET -8.27202 -0.0477905 -0.4584
                CHANNELS 3 Zrotation Xrotation Yrotation
                JOINT rPinky2
                {
                  OFFSET -1.82734 -0.647385 -0.700984
                  CHANNELS 3 Zrotation Xrotation Yrotation
                  End Site
                  {
                    OFFSET -1.69225 -0.51767 -0.607171
                  }
                }
              }
            }
          }
        }
      }
      JOINT lCollar
      {
        OFFSET 2.68224 19.2634 -4.8768
        CHANNELS 3 Zrotation Xrotation Yrotation
        JOINT lShldr
        {
          OFFSET 8.77824 -1.95073 1.46304
          CHANNELS 3 Zrotation Xrotation Yrotation
          JOINT lForeArm
          {
            OFFSET 28.1742 -1.7115 0.48768
            CHANNELS 3 Zrotation Xrotation Yrotation
            JOINT lHand
            {
              OFFSET 22.5879 0.773209 7.07136
              CHANNELS 3 Zrotation Xrotation Yrotation
              JOINT lThumb1
              {
                OFFSET 1.2192 -0.487915 3.41376
                CHANNELS 3 Zrotation Xrotation Yrotation
                JOINT lThumb2
                {
                  OFFSET 3.37035 -0.52449 3.41376
                  CHANNELS 3 Zrotation Xrotation Yrotation
                  End Site
                  {
                    OFFSET 1.78271 -1.18214 1.43049
                  }
                }
              }
              JOINT lIndex1
              {
                OFFSET 7.75947 0.938293 5.60832
                CHANNELS 3 Zrotation Xrotation Yrotation
                JOINT lIndex2
                {
                  OFFSET 2.54057 -0.884171 1.56538
                  CHANNELS 3 Zrotation Xrotation Yrotation
                  End Site
                  {
                    OFFSET 1.62519 -0.234802 1.16502
                  }
                }
              }
              JOINT lMid1
              {
                OFFSET 8.24714 1.18213 3.41376
                CHANNELS 3 Zrotation Xrotation Yrotation
                JOINT lMid2
                {
                  OFFSET 3.10165 -0.590103 1.0647
                  CHANNELS 3 Zrotation Xrotation Yrotation
                  End Site
                  {
                    OFFSET 2.48547 -0.328903 0.83742
                  }
                }
              }
              JOINT lRing1
              {
                OFFSET 8.82822 0.546677 1.51678
                CHANNELS 3 Zrotation Xrotation Yrotation
                JOINT lRing2
                {
                  OFFSET 2.60934 -0.819778 -0.0198488
                  CHANNELS 3 Zrotation Xrotation Yrotation
                  End Site
                  {
                    OFFSET 2.33842 -0.294052 0.168128
                  }
                }
              }
              JOINT lPinky1
              {
                OFFSET 8.27202 -0.0477905 -0.4584
                CHANNELS 3 Zrotation Xrotation Yrotation
                JOINT lPinky2
                {
                  OFFSET 1.82734 -0.647385 -0.700984
                  CHANNELS 3 Zrotation Xrotation Yrotation
                  End Site
                  {
                    OFFSET 1.69225 -0.51767 -0.607171
                  }
                }
              }
            }
          }
        }
      }
    }
  }
  JOINT rButtock
  {
    OFFSET -8.77824 4.35084 1.2192
    CHANNELS 3 Zrotation Xrotation Yrotation
    JOINT rThigh
    {
      OFFSET 0 -1.70687 -2.19456
      CHANNELS 3 Zrotation Xrotation Yrotation
      JOINT rShin
      {
        OFFSET 0 -36.8199 0.73152
        CHANNELS 3 Zrotation Xrotation Yrotation
        JOINT rFoot
        {
          OFFSET 0.73152 -45.1104 -5.12064
          CHANNELS 3 Zrotation Xrotation Yrotation
          End Site
          {
            OFFSET -1.1221 -3.69964 12.103
          }
        }
      }
    }
  }
  JOINT lButtock
  {
    OFFSET 8.77824 4.35084 1.2192
    CHANNELS 3 Zrotation Xrotation Yrotation
    JOINT lThigh
    {
      OFFSET 0 -1.70687 -2.19456
      CHANNELS 3 Zrotation Xrotation Yrotation
      JOINT lShin
      {
        OFFSET 0 -36.8199 0.73152
        CHANNELS 3 Zrotation Xrotation Yrotation
        JOINT lFoot
        {
          OFFSET -0.73152 -45.1104 -5.12064
          CHANNELS 3 Zrotation Xrotation Yrotation
          End Site
          {
            OFFSET 1.1221 -3.69964 12.103
          }
        }
      }
    }
  }
}
MOTION
Frames:	8
Frame Time:	0.00833333
78.183 85.0159 7.01678 0.0 0.0 0.0 0.0404823 0.000270402 0.00114434 0.0111571 0.000489937 0.00193268 2.32586e-16 0.0 -1.553e-18 7.05064e-16 3.18055e-15 -4.65902e-18 -0.0 0.0 0.0 -0.0 0.0 0.0 1.4776e-16 -1.35888e-18 1.49089e-16 4.3489e-15 -1.86361e-16 7.95139e-16 4.49253e-14 -1.21259e-14 6.36111e-15 4.9444e-13 1.37161e-14 -1.90833e-14 1.16874e-12 4.73917e-15 -9.54166e-15 2.01091e-12 6.36111e-15 -1.66979e-14 1.17362e-12 6.75868e-15 -1.27222e-14 7.73091 5.47488 0.417314 1.16801e-12 4.37326e-15 -6.36111e-15 2.90554 0.965183 0.102902 1.17343e-12 4.67144e-15 -7.95139e-15 10.2786 0.731801 0.0259123 1.16607e-12 5.96354e-15 3.18055e-15 2.22167 -0.733487 -0.20892 5.10315e-17 -1.35888e-18 -1.49089e-16 4.21738e-16 -2.79541e-16 -7.95139e-16 3.83157e-14 1.41137e-14 3.18055e-15 4.98508e-13 -9.96408e-15 0.0 1.16833e-12 1.17172e-14 -9.54166e-15 2.02681e-12 2.54444e-14 -7.95139e-15 1.16369e-12 1.15295e-14 6.36111e-15 -7.73091 5.47488 -0.417314 1.1693e-12 1.17283e-14 -9.54166e-15 -2.90554 0.965183 -0.102902 1.16301e-12 1.18277e-14 -6.36111e-15 -10.2786 0.731801 -0.0259123 1.16925e-12 1.15295e-14 -1.59028e-14 -2.22167 -0.733487 0.20892 -2.03217e-16 0.0 -3.88251e-19 0.55464 -3.16496 -0.043685 -0.0057452 0.179607 -0.0505576 -0.523877 2.98421 0.121168 2.03217e-16 0.0 3.88251e-19 -0.493036 -3.01454 0.0399654 0.00619331 -0.0928792 0.0545628 0.523459 3.10627 -0.123626
77.0773 83.5524 5.84578 4.0807 -37.4538 0.6379 -0.523354 0.864882 0.614617 -0.340388 -0.3028 0.176204 -1.273 0.667706 -0.168679 0.132362 0.94911 -0.114872 -0.0 0.0 0.0 -0.0 0.0 0.0 -4.19207e-14 -5.74205e-14 5.73192e-13 22.0619 3.39593 -0.895287 -4.07008 -1.82049 6.388 0.0829792 6.39801 0.87907 -2.82519e-09 3.03696e-09 6.88446e-10 -4.86121e-09 5.24916e-09 1.2449e-09 -2.82518e-09 3.03696e-09 6.88441e-10 7.73091 5.47488 0.417314 -2.82519e-09 3.03696e-09 6.8845e-10 2.90554 0.965183 0.102902 -2.82518e-09 3.03696e-09 6.88447e-10 10.2786 0.731801 0.0259123 -2.82519e-09 3.03696e-09 6.88458e-10 2.22167 -0.733487 -0.20892 -4.19836e-14 -5.74167e-14 5.72937e-13 -22.6831 -0.815036 1.03502 5.47723 -2.80364 -8.18539 -0.0601165 5.44329 -0.75259 -3.09544e-09 -2.67701e-09 5.64465e-11 -5.34355e-09 -4.56128e-09 1.54765e-10 -3.09544e-09 -2.677e-09 5.64637e-11 -7.73091 5.47488 -0.417314 -3.09543e-09 -2.677e-09 5.64475e-11 -2.90554 0.965183 -0.102902 -3.09544e-09 -2.677e-09 5.64493e-11 -10.2786 0.731801 -0.0259123 -3.09543e-09 -2.677e-09 5.64415e-11 -2.22167 -0.733487 0.20892 -2.03217e-16 0.0 -3.88251e-19 -0.967976 -7.48901 1.11784 0.0231458 7.5239 0.0916796 -0.839531 -0.978508 -5.10694 2.03217e-16 0.0 3.88251e-19 1.30695 -8.25606 3.53407 -0.00451496 9.3397 -0.0925038 0.375106 0.875351 -1.03588
77.2785 83.5362 5.94017 4.8246 -37.0719 0.2227 -1.16102 1.76544 1.26353 -0.703172 -0.62217 0.360415 -2.63761 1.3771 -0.368219 0.306689 1.92797 -0.273652 -0.0 0.0 0.0 -0.0 0.0 0.0 -8.88084e-14 -1.19722e-13 1.21924e-12 45.5093 6.97931 -1.84903 -7.93247 -3.66828 13.1587 -0.048084 13.1684 1.84722 -6.00406e-09 6.46782e-09 1.44782e-09 -1.03313e-08 1.11793e-08 2.61924e-09 -6.00406e-09 6.46783e-09 1.44781e-09 7.73091 5.47488 0.417314 -6.00406e-09 6.46782e-09 1.44783e-09 2.90554 0.965183 0.102902 -6.00406e-09 6.46782e-09 1.44782e-09 10.2786 0.731801 0.0259123 -6.00407e-09 6.46783e-09 1.44783e-09 2.22167 -0.733487 -0.20892 -8.88334e-14 -1.19715e-13 1.21903e-12 -46.6281 -1.69682 2.13533 10.3972 -5.56961 -16.8887 0.0345501 11.1946 -1.57112 -6.5856e-09 -5.68238e-09 1.33403e-10 -1.13683e-08 -9.68149e-09 3.52256e-10 -6.5856e-09 -5.68238e-09 1.33421e-10 -7.73091 5.47488 -0.417314 -6.5856e-09 -5.68238e-09 1.33405e-10 -2.90554 0.965183 -0.102902 -6.58561e-09 -5.68238e-09 1.33405e-10 -10.2786 0.731801 -0.0259123 -6.5856e-09 -5.68238e-09 1.33399e-10 -2.22167 -0.733487 0.20892 -2.03217e-16 0.0 -3.88251e-19 -2.38877 -12.0562 2.38514 0.0128406 15.2768 0.248802 -1.95577 -5.0826 -10.6679 2.03217e-16 0.0 3.88251e-19 3.89045 -13.7233 7.36257 0.0394438 19.3167 -0.260148 0.150168 -1.50397 -1.91575
77.56 83.4354 5.96334 5.3884 -36.6784 0.2499 -1.70661 2.59291 1.84324 -1.03794 -0.909346 0.524806 -3.8072 2.00305 -0.506311 0.408514 2.84728 -0.344994 -0.0 0.0 0.0 -0.0 0.0 0.0 -1.26058e-13 -1.72259e-13 1.71928e-12 66.5084 10.1777 -2.72404 -11.0135 -5.19047 19.2363 -0.36923 19.1754 2.77485 -8.4779e-09 9.11086e-09 2.06536e-09 -1.45877e-08 1.57475e-08 3.73473e-09 -8.47789e-09 9.11086e-09 2.06535e-09 7.73091 5.47488 0.417314 -8.4779e-09 9.11086e-09 2.06536e-09 2.90554 0.965183 0.102902 -8.47789e-09 9.11086e-09 2.06536e-09 10.2786 0.731801 0.0259123 -8.4779e-09 9.11086e-09 2.06537e-09 2.22167 -0.733487 -0.20892 -1.26053e-13 -1.72247e-13 1.71911e-12 -67.9608 -2.44192 3.10758 14.0921 -7.72571 -24.7663 0.26384 16.3184 -2.34198 -9.28864e-09 -8.03104e-09 1.69359e-10 -1.60347e-08 -1.36839e-08 4.6431e-10 -9.28864e-09 -8.03103e-09 1.69379e-10 -7.73091 5.47488 -0.417314 -9.28864e-09 -8.03103e-09 1.69362e-10 -2.90554 0.965183 -0.102902 -9.28865e-09 -8.03103e-09 1.69361e-10 -10.2786 0.731801 -0.0259123 -9.28864e-09 -8.03103e-09 1.69356e-10 -2.22167 -0.733487 0.20892 -2.03217e-16 0.0 -3.88251e-19 -3.46832 -16.112 3.55184 -0.0353744 22.212 0.403747 -3.63088 -8.58635 -15.7415 2.03217e-16 0.0 3.88251e-19 6.90465 -18.465 10.9844 0.134589 28.2042 -0.434554 -0.134868 -3.5816 -2.86598
77.7822 83.3757 5.94591 5.3746 -36.2711 0.5377 -1.98411 3.23877 2.24844 -1.30655 -1.11607 0.639592 -4.49999 2.42051 -0.490438 0.314881 3.6178 -0.197104 -0.0 0.0 0.0 -0.0 0.0 0.0 -1.39211e-13 -2.00381e-13 1.85431e-12 81.1599 12.4232 -3.36638 -12.9742 -6.15573 23.5121 -0.715131 23.292 3.46869 -9.18912e-09 9.78432e-09 2.32829e-09 -1.58099e-08 1.69109e-08 4.20311e-09 -9.18912e-09 9.78433e-09 2.32828e-09 7.73091 5.47488 0.417314 -9.18912e-09 9.78433e-09 2.32829e-09 2.90554 0.965183 0.102902 -9.18911e-09 9.78432e-09 2.32829e-09 10.2786 0.731801 0.0259123 -9.18913e-09 9.78433e-09 2.3283e-09 2.22167 -0.733487 -0.20892 -1.39196e-13 -2.00368e-13 1.85416e-12 -82.8294 -2.84862 3.75695 16.3344 -9.0017 -30.3818 0.510815 19.8839 -2.91363 -1.00239e-08 -8.7379e-09 1.02815e-10 -1.73052e-08 -1.48917e-08 3.62773e-10 -1.00239e-08 -8.73789e-09 1.02834e-10 -7.73091 5.47488 -0.417314 -1.00239e-08 -8.73789e-09 1.02818e-10 -2.90554 0.965183 -0.102902 -1.00239e-08 -8.73789e-09 1.02815e-10 -10.2786 0.731801 -0.0259123 -1.00239e-08 -8.73789e-09 1.02811e-10 -2.22167 -0.733487 0.20892 -2.03217e-16 0.0 -3.88251e-19 -4.09129 -18.9127 4.36659 -0.0949813 27.1037 0.527083 -5.18949 -10.908 -19.3995 2.03217e-16 0.0 3.88251e-19 9.55709 -21.6458 13.6725 0.23954 34.3688 -0.579691 -0.446675 -4.90787 -3.9852
77.8973 83.3821 6.01481 5.1932 -35.9305 0.6382 -1.84149 3.65179 2.38956 -1.48698 -1.21664 0.679674 -4.50249 2.53024 -0.241483 -0.102816 4.20911 0.287741 -0.0 0.0 0.0 -0.0 0.0 0.0 -1.17212e-13 -2.0012e-13 1.37368e-12 86.816 13.3871 -3.64996 -13.72 -6.52126 25.2327 -0.868668 24.7466 3.72966 -6.90312e-09 7.08357e-09 2.07883e-09 -1.18709e-08 1.22409e-08 3.72768e-09 -6.90312e-09 7.08357e-09 2.07882e-09 7.73091 5.47488 0.417314 -6.90312e-09 7.08357e-09 2.07884e-09 2.90554 0.965183 0.102902 -6.90311e-09 7.08357e-09 2.07883e-09 10.2786 0.731801 0.0259123 -6.90313e-09 7.08357e-09 2.07884e-09 2.22167 -0.733487 -0.20892 -1.1722e-13 -2.00108e-13 1.37352e-12 -88.6796 -2.79601 3.94073 17.1913 -9.48457 -32.7202 0.62933 21.2932 -3.14964 -7.39681e-09 -6.64729e-09 -1.63082e-10 -1.27737e-08 -1.13387e-08 -1.45559e-10 -7.3968e-09 -6.64728e-09 -1.63067e-10 -7.73091 5.47488 -0.417314 -7.3968e-09 -6.64727e-09 -1.6308e-10 -2.90554 0.965183 -0.102902 -7.39681e-09 -6.64728e-09 -1.63084e-10 -10.2786 0.731801 -0.0259123 -7.3968e-09 -6.64728e-09 -1.6309e-10 -2.22167 -0.733487 0.20892 -2.03217e-16 0.0 -3.88251e-19 -4.23421 -19.9645 4.62251 -0.127224 29.1444 0.585071 -5.9227 -11.8194 -20.9326 2.03217e-16 0.0 3.88251e-19 11.0413 -22.7772 14.8134 0.290462 36.7455 -0.641665 -0.78186 -5.43003 -5.50365
77.9398 83.4034 6.10443 4.9996 -35.7557 0.6458 -1.39514 3.89777 2.34257 -1.60472 -1.24109 0.666635 -4.01182 2.42081 0.173086 -0.75728 4.67041 1.01248 -0.0 0.0 0.0 -0.0 0.0 0.0 -7.01718e-14 -1.79309e-13 4.58258e-13 86.0208 13.4356 -3.66968 -13.6756 -6.50975 25.1174 -0.829921 24.305 3.65215 -2.50146e-09 2.00203e-09 1.46415e-09 -4.28888e-09 3.45477e-09 2.5799e-09 -2.50145e-09 2.00203e-09 1.46414e-09 7.73091 5.47488 0.417314 -2.50146e-09 2.00203e-09 1.46415e-09 2.90554 0.965183 0.102902 -2.50145e-09 2.00203e-09 1.46415e-09 10.2786 0.731801 0.0259123 -2.50146e-09 2.00203e-09 1.46416e-09 2.22167 -0.733487 -0.20892 -7.02246e-14 -1.79299e-13 4.58074e-13 -88.091 -2.4151 3.79238 17.2015 -9.5327 -32.6938 0.617264 21.1639 -3.12756 -2.39702e-09 -2.58224e-09 -5.68715e-10 -4.14783e-09 -4.42552e-09 -9.39327e-10 -2.39702e-09 -2.58224e-09 -5.68706e-10 -7.73091 5.47488 -0.417314 -2.39701e-09 -2.58223e-09 -5.68715e-10 -2.90554 0.965183 -0.102902 -2.39702e-09 -2.58223e-09 -5.68719e-10 -10.2786 0.731801 -0.0259123 -2.39702e-09 -2.58223e-09 -5.68728e-10 -2.22167 -0.733487 0.20892 -2.03217e-16 0.0 -3.88251e-19 -4.07772 -19.7718 4.46091 -0.127627 29.1484 0.589095 -5.90886 -11.7965 -20.9052 2.03217e-16 0.0 3.88251e-19 11.5235 -22.4997 14.7691 0.282924 36.4156 -0.630205 -1.10227 -5.36475 -7.29572
78.036 83.414 6.1986 4.7305 -35.4443 0.6283 -0.870878 4.04393 2.25021 -1.69305 -1.22475 0.640693 -3.36429 2.24898 0.626077 -1.44553 5.03216 1.78663 -0.0 0.0 0.0 -0.0 0.0 0.0 -1.53839e-14 -1.41005e-13 -4.63613e-13 82.651 13.0445 -3.59514 -13.3102 -6.34349 24.2543 -0.721914 23.1507 3.44955 1.89915e-09 -3.04492e-09 7.28874e-10 3.28904e-09 -5.2707e-09 1.22376e-09 1.89916e-09 -3.04492e-09 7.28867e-10 7.73091 5.47488 0.417314 1.89914e-09 -3.04492e-09 7.2888e-10 2.90554 0.965183 0.102902 1.89915e-09 -3.04492e-09 7.28878e-10 10.2786 0.731801 0.0259123 1.89914e-09 -3.04492e-09 7.28885e-10 2.22167 -0.733487 -0.20892 -1.54839e-14 -1.40997e-13 -4.63831e-13 -84.9179 -1.88295 3.53065 16.8844 -9.41778 -31.7273 0.551165 20.3919 -2.99775 2.58008e-09 1.47426e-09 -9.40876e-10 4.43936e-09 2.47416e-09 -1.67484e-09 2.58008e-09 1.47426e-09 -9.40874e-10 -7.73091 5.47488 -0.417314 2.58008e-09 1.47427e-09 -9.40878e-10 -2.90554 0.965183 -0.102902 2.58007e-09 1.47427e-09 -9.40884e-10 -10.2786 0.731801 -0.0259123 2.58008e-09 1.47427e-09 -9.40896e-10 -2.22167 -0.733487 0.20892 -2.03217e-16 0.0 -3.88251e-19 -3.84105 -19.0936 4.13202 -0.114302 28.3221 0.57086 -5.58409 -11.3926 -20.2462 2.03217e-16 0.0 3.88251e-19 11.5728 -21.727 14.1921 0.251647 34.9654 -0.591697 -1.28495 -4.67438 -8.92115
